<svg width="104" height="34" viewBox="0 0 104 34" fill="none" xmlns="http://www.w3.org/2000/svg">
<path d="M12.9587 8.70532C15.5036 8.70532 17.6119 9.55984 19.273 11.2796C20.9341 12.9993 21.7647 15.3705 21.7647 18.3934V32.7599H15.7485V19.1411C15.7485 17.5816 15.3332 16.3853 14.492 15.5628C13.6508 14.7403 12.5328 14.3238 11.1379 14.3238C9.58326 14.3238 8.33744 14.8044 7.41106 15.7764C6.47403 16.7485 6.01616 18.1904 6.01616 20.1238V32.7599H0V9.36757H6.00551V11.9845C7.4643 9.79483 9.78557 8.70532 12.9587 8.70532Z" fill="#004C4C"/>
<path d="M46.7656 29.8333C44.3698 32.2153 41.4523 33.4116 38.0023 33.4116C34.5523 33.4116 31.6347 32.2153 29.2602 29.8333C26.8857 27.4513 25.6931 24.5246 25.6931 21.0638C25.6931 17.603 26.8857 14.6763 29.2602 12.2943C31.6347 9.91239 34.5523 8.71606 38.0023 8.71606C41.4523 8.71606 44.3805 9.91239 46.7656 12.2943C49.1614 14.6763 50.354 17.603 50.354 21.0638C50.354 24.5139 49.1614 27.4406 46.7656 29.8333ZM33.4981 25.6889C34.6907 26.9066 36.1921 27.5154 38.0023 27.5154C39.8018 27.5154 41.3138 26.9066 42.5277 25.6889C43.7416 24.4712 44.3485 22.9331 44.3485 21.0531C44.3485 19.1839 43.7416 17.6351 42.5277 16.4174C41.3138 15.1997 39.8018 14.5909 38.0023 14.5909C36.2028 14.5909 34.7014 15.1997 33.4981 16.4174C32.3056 17.6351 31.6986 19.1732 31.6986 21.0531C31.6986 22.9331 32.2949 24.4712 33.4981 25.6889Z" fill="#004C4C"/>
<path d="M74.4727 29.8333C72.0769 32.2153 69.1593 33.4116 65.7093 33.4116C62.2593 33.4116 59.3418 32.2153 56.9672 29.8333C54.5927 27.4513 53.4001 24.5246 53.4001 21.0638C53.4001 17.603 54.5927 14.6763 56.9672 12.2943C59.3418 9.91239 62.2593 8.71606 65.7093 8.71606C69.1593 8.71606 72.0875 9.91239 74.4727 12.2943C76.8685 14.6763 78.0611 17.603 78.0611 21.0638C78.0611 24.5139 76.8578 27.4406 74.4727 29.8333ZM61.2052 25.6889C62.3978 26.9066 63.8991 27.5154 65.7093 27.5154C67.5088 27.5154 69.0209 26.9066 70.2347 25.6889C71.4486 24.4712 72.0556 22.9331 72.0556 21.0531C72.0556 19.1839 71.4486 17.6351 70.2347 16.4174C69.0209 15.1997 67.5088 14.5909 65.7093 14.5909C63.9098 14.5909 62.4084 15.1997 61.2052 16.4174C60.0126 17.6351 59.4057 19.1732 59.4057 21.0531C59.4057 22.9331 60.002 24.4712 61.2052 25.6889Z" fill="#004C4C"/>
<path d="M103.808 32.7493H96.812L88.3255 22.1213V32.7493H82.3093V0H88.3255V19.6966L96.3435 9.36763H103.531L94.1606 20.925L103.808 32.7493Z" fill="#004C4C"/>
</svg>
