<svg width="17" height="17" viewBox="0 0 17 17" fill="none" xmlns="http://www.w3.org/2000/svg">
<path d="M8.40855 5.4611C6.76663 5.4611 5.43558 6.79492 5.43558 8.44027C5.43558 10.0856 6.76663 11.4194 8.40855 11.4194C10.0505 11.4194 11.3815 10.0856 11.3815 8.44027C11.3815 6.79492 10.0505 5.4611 8.40855 5.4611Z" fill="#303635"/>
<path fill-rule="evenodd" clip-rule="evenodd" d="M3.62393 0.264947C6.77814 -0.0883158 10.039 -0.0883158 13.1932 0.264948C14.9298 0.45944 16.3305 1.83057 16.5343 3.57687C16.9114 6.80812 16.9114 10.0724 16.5343 13.3037C16.3305 15.05 14.9298 16.4211 13.1932 16.6156C10.039 16.9689 6.77814 16.9689 3.62393 16.6156C1.88735 16.4211 0.486675 15.05 0.282854 13.3037C-0.0942847 10.0724 -0.0942847 6.80812 0.282854 3.57687C0.486675 1.83057 1.88735 0.45944 3.62393 0.264947ZM12.9824 2.94027C12.4771 2.94027 12.0676 3.35067 12.0676 3.85693C12.0676 4.3632 12.4771 4.7736 12.9824 4.7736C13.4876 4.7736 13.8971 4.3632 13.8971 3.85693C13.8971 3.35067 13.4876 2.94027 12.9824 2.94027ZM4.06344 8.44027C4.06344 6.03553 6.00881 4.0861 8.40855 4.0861C10.8083 4.0861 12.7537 6.03553 12.7537 8.44027C12.7537 10.845 10.8083 12.7944 8.40855 12.7944C6.00881 12.7944 4.06344 10.845 4.06344 8.44027Z" fill="#303635"/>
</svg>
