<svg width="68" height="22" viewBox="0 0 68 22" fill="none" xmlns="http://www.w3.org/2000/svg">
<path d="M8.41842 5.65527C10.0717 5.65527 11.4413 6.2104 12.5204 7.32758C13.5995 8.44477 14.1391 9.98524 14.1391 11.949V21.282H10.2308V12.4347C10.2308 11.4216 9.961 10.6444 9.41453 10.1101C8.86805 9.57583 8.14173 9.30521 7.23556 9.30521C6.22562 9.30521 5.41629 9.61747 4.81448 10.2489C4.20576 10.8804 3.90831 11.8171 3.90831 13.0731V21.282H0V6.08549H3.90139V7.78556C4.84907 6.36306 6.35705 5.65527 8.41842 5.65527Z" fill="#004C4C"/>
<path d="M30.3806 19.3808C28.8242 20.9282 26.9288 21.7054 24.6876 21.7054C22.4464 21.7054 20.551 20.9282 19.0085 19.3808C17.4659 17.8334 16.6912 15.9321 16.6912 13.6839C16.6912 11.4356 17.4659 9.53434 19.0085 7.98693C20.551 6.43953 22.4464 5.66235 24.6876 5.66235C26.9288 5.66235 28.8311 6.43953 30.3806 7.98693C31.937 9.53434 32.7118 11.4356 32.7118 13.6839C32.7118 15.9252 31.937 17.8265 30.3806 19.3808ZM21.7616 16.6885C22.5363 17.4795 23.5117 17.8751 24.6876 17.8751C25.8567 17.8751 26.8389 17.4795 27.6275 16.6885C28.4161 15.8974 28.8104 14.8982 28.8104 13.6769C28.8104 12.4626 28.4161 11.4565 27.6275 10.6654C26.8389 9.87435 25.8567 9.47883 24.6876 9.47883C23.5186 9.47883 22.5432 9.87435 21.7616 10.6654C20.9868 11.4565 20.5925 12.4557 20.5925 13.6769C20.5925 14.8982 20.9799 15.8974 21.7616 16.6885Z" fill="#004C4C"/>
<path d="M48.3801 19.3808C46.8237 20.9282 44.9284 21.7054 42.6871 21.7054C40.4459 21.7054 38.5506 20.9282 37.008 19.3808C35.4654 17.8334 34.6907 15.9321 34.6907 13.6839C34.6907 11.4356 35.4654 9.53434 37.008 7.98693C38.5506 6.43953 40.4459 5.66235 42.6871 5.66235C44.9284 5.66235 46.8306 6.43953 48.3801 7.98693C49.9365 9.53434 50.7113 11.4356 50.7113 13.6839C50.7113 15.9252 49.9296 17.8265 48.3801 19.3808ZM39.7611 16.6885C40.5358 17.4795 41.5112 17.8751 42.6871 17.8751C43.8562 17.8751 44.8384 17.4795 45.627 16.6885C46.4156 15.8974 46.8099 14.8982 46.8099 13.6769C46.8099 12.4626 46.4156 11.4565 45.627 10.6654C44.8384 9.87435 43.8562 9.47883 42.6871 9.47883C41.5181 9.47883 40.5428 9.87435 39.7611 10.6654C38.9864 11.4565 38.5921 12.4557 38.5921 13.6769C38.5921 14.8982 38.9794 15.8974 39.7611 16.6885Z" fill="#004C4C"/>
<path d="M67.4373 21.2751H62.8926L57.3795 14.3708V21.2751H53.4712V0H57.3795V12.7956L62.5883 6.08554H67.2575L61.1702 13.5936L67.4373 21.2751Z" fill="#004C4C"/>
</svg>
